# xmcd
#
# Track frame offsets:
#	182
#	11587
#	24007
#	38345
#	56122
#	68020
#	81967
#	110675
#	124512
#	143370
#	156940
#	173522
#	188460
#	206400
#	220195
#	228195
#
# Disc length: 3217 seconds
#
# Revision: 2
# Processed by: cddbd v1.4PL0 Copyright (c) Steve Scherf et al.
# Submitted via: MusicManager 7.0.3.0 
#
DISCID=bc0c8f10
DTITLE=Flying Burrito Bros - Hot Burrito
DYEAR=1975
DGENRE=
TTITLE0=Man In The Fog
TTITLE1=Cody, Cody
TTITLE2=Tried So Hard
TTITLE3=Dark End Of The Street
TTITLE4=My Uncle
TTITLE5=The Train Song
TTITLE6=Wild Horses
TTITLE7=Christine's Tune
TTITLE8=Sin City
TTITLE9=Lazy Days
TTITLE10=Hot Burrito #1
TTITLE11=Hot Burrito #2
TTITLE12=Do Right Woman
TTITLE13=Wheels
TTITLE14=Just Because
TTITLE15=Six Days On The Road
EXTD=
EXTT0=
EXTT1=
EXTT2=
EXTT3=
EXTT4=
EXTT5=
EXTT6=
EXTT7=
EXTT8=
EXTT9=
EXTT10=
EXTT11=
EXTT12=
EXTT13=
EXTT14=
EXTT15=
PLAYORDER=
